<svg width="52" height="52" viewBox="0 0 52 52" fill="none" xmlns="http://www.w3.org/2000/svg">
<rect width="52" height="52" rx="10" fill="#FABC1E"/>
<path d="M37.9129 31.1456C37.7382 30.4939 37.3202 29.9491 36.7359 29.6118C36.5953 29.5306 36.4478 29.4635 36.2955 29.411V22.6723C36.4478 22.6198 36.5953 22.5527 36.7358 22.4716C37.3202 22.1342 37.7382 21.5895 37.9128 20.9377C38.0874 20.286 37.9978 19.6052 37.6604 19.0209C37.2106 18.2416 36.3717 17.7575 35.4712 17.7575C35.0297 17.7575 34.5935 17.8746 34.2097 18.0962C34.068 18.178 33.9361 18.2721 33.8151 18.3768L27.98 15.0079C28.0103 14.8519 28.0262 14.6909 28.0262 14.5261C28.0262 13.1332 26.893 12 25.5 12C24.1071 12 22.9739 13.1332 22.9739 14.5261C22.9739 14.6909 22.9898 14.8519 23.02 15.0079L17.1849 18.3768C17.0639 18.272 16.932 18.178 16.7903 18.0962C16.4065 17.8746 15.9703 17.7575 15.5288 17.7575C14.6284 17.7575 13.7895 18.2416 13.3395 19.0209C13.0021 19.6052 12.9125 20.2859 13.0872 20.9377C13.2618 21.5894 13.6798 22.1342 14.2641 22.4716C14.4047 22.5527 14.5522 22.6198 14.7045 22.6723V29.411C14.5522 29.4635 14.4047 29.5306 14.2642 29.6117C13.6798 29.9491 13.2618 30.4938 13.0872 31.1456C12.9126 31.7973 13.0022 32.4781 13.3396 33.0625C13.7895 33.8417 14.6284 34.3258 15.5288 34.3258C15.9703 34.3258 16.4065 34.2087 16.7903 33.9871C16.932 33.9053 17.0639 33.8112 17.1849 33.7065L23.02 37.0754C22.9898 37.2314 22.9739 37.3925 22.9739 37.5572C22.9739 38.9501 24.1071 40.0833 25.5 40.0833C26.893 40.0833 28.0262 38.9501 28.0262 37.5572C28.0262 37.3925 28.0103 37.2314 27.98 37.0754L33.8151 33.7065C33.9362 33.8113 34.0681 33.9053 34.2097 33.9871C34.5936 34.2087 35.0298 34.3258 35.4712 34.3258C36.3717 34.3258 37.2106 33.8417 37.6605 33.0625C37.9979 32.4781 38.0874 31.7974 37.9129 31.1456ZM33.2851 30.5364C32.9774 31.0695 32.8758 31.6828 32.9929 32.2812L27.156 35.6511C26.7123 35.265 26.133 35.031 25.5 35.031C24.8671 35.031 24.2878 35.265 23.844 35.6511L18.0071 32.2812C18.1243 31.6828 18.0227 31.0695 17.715 30.5364C17.4071 30.0032 16.9172 29.6082 16.3501 29.4119V22.6714C16.9172 22.4751 17.4071 22.0801 17.715 21.547C18.0227 21.0139 18.1243 20.4006 18.0071 19.8022L23.844 16.4322C24.2878 16.8183 24.8671 17.0523 25.5 17.0523C26.133 17.0523 26.7123 16.8183 27.156 16.4322L32.9929 19.8021C32.8758 20.4005 32.9774 21.0138 33.2851 21.5469C33.5929 22.0801 34.0829 22.4751 34.65 22.6714V29.4119C34.0829 29.6082 33.5929 30.0032 33.2851 30.5364ZM34.6222 20.056C34.683 19.8288 34.8288 19.6389 35.0324 19.5213C35.1664 19.4439 35.3182 19.403 35.4712 19.403C35.7856 19.403 36.0785 19.5718 36.2354 19.8436C36.353 20.0473 36.3842 20.2846 36.3234 20.5119C36.2625 20.739 36.1168 20.9289 35.9131 21.0466C35.7791 21.124 35.6274 21.1649 35.4744 21.1649C35.1599 21.1649 34.8671 20.996 34.7101 20.7242C34.5925 20.5205 34.5613 20.2832 34.6222 20.056ZM25.5 13.6455C25.9856 13.6455 26.3807 14.0405 26.3807 14.5261C26.3807 15.0117 25.9856 15.4068 25.5 15.4068C25.0144 15.4068 24.6194 15.0117 24.6194 14.5261C24.6194 14.0405 25.0144 13.6455 25.5 13.6455ZM14.7647 19.8436C14.9216 19.5718 15.2144 19.403 15.5289 19.403C15.6841 19.403 15.8317 19.4428 15.9676 19.5213C16.1714 19.6389 16.317 19.8287 16.3779 20.056C16.4388 20.2832 16.4075 20.5205 16.2899 20.7242C16.133 20.996 15.8402 21.1649 15.5257 21.1649C15.3705 21.1649 15.2229 21.125 15.087 21.0466C14.8832 20.929 14.7376 20.7391 14.6767 20.5119C14.6158 20.2846 14.6471 20.0473 14.7647 19.8436ZM16.3779 32.0273C16.317 32.2545 16.1713 32.4444 15.9676 32.5621C15.8336 32.6395 15.6819 32.6803 15.5289 32.6803C15.2144 32.6803 14.9216 32.5115 14.7647 32.2397C14.6471 32.036 14.6158 31.7987 14.6767 31.5715C14.7376 31.3443 14.8833 31.1544 15.087 31.0367C15.221 30.9593 15.3727 30.9185 15.5257 30.9185C15.8402 30.9185 16.133 31.0873 16.2899 31.3591C16.4075 31.5628 16.4388 31.8001 16.3779 32.0273ZM25.5 38.4378C25.0144 38.4378 24.6194 38.0428 24.6194 37.5572C24.6194 37.0716 25.0144 36.6766 25.5 36.6766C25.9856 36.6766 26.3807 37.0716 26.3807 37.5572C26.3807 38.0428 25.9856 38.4378 25.5 38.4378ZM36.2354 32.2398C36.0785 32.5115 35.7856 32.6804 35.4712 32.6804C35.316 32.6804 35.1684 32.6406 35.0324 32.5621C34.8287 32.4445 34.683 32.2546 34.6222 32.0274C34.5613 31.8002 34.5925 31.5628 34.7101 31.3591C34.8671 31.0874 35.1599 30.9185 35.4744 30.9185C35.6296 30.9185 35.7772 30.9583 35.9131 31.0368C36.1168 31.1544 36.2625 31.3443 36.3234 31.5715C36.3843 31.7988 36.353 32.036 36.2354 32.2398Z" fill="white"/>
<path d="M19.2534 22.333V29.7495L25.4997 33.3342L31.7459 29.7495V22.333L25.4997 18.7483L19.2534 22.333ZM29.2702 22.8094L25.4997 24.9733L21.7291 22.8094L25.4997 20.6455L29.2702 22.8094ZM20.8989 24.2302L24.6769 26.3983V30.9647L20.8989 28.7965V24.2302ZM26.3224 30.9647V26.3983L30.1004 24.2302V28.7966L26.3224 30.9647Z" fill="white"/>
</svg>
