<svg width="52" height="52" viewBox="0 0 52 52" fill="none" xmlns="http://www.w3.org/2000/svg">
<rect width="52" height="52" rx="10" fill="#6154F0"/>
<path d="M18.4101 15.2021L25.1979 18.8623V27.0576L18.4101 23.3762V15.2021ZM11.3565 27.5874L11.4622 27.648L18.099 31.2476L24.8294 27.5874L18.0869 23.9545L11.3565 27.5874ZM18.4131 40L25.1798 36.3337V28.1293L18.4131 31.7956V40ZM32.5959 23.3762V15.2021L25.8232 18.8653V27.0395L32.5959 23.3762ZM39.6466 27.5844L32.9252 23.9363L26.1767 27.5905L26.3609 27.6934L32.7953 31.178L32.9131 31.2416L35.1485 30.0306L39.6466 27.5844ZM11 36.3216L17.7788 39.9909V31.7926L11 28.1263V36.3216ZM33.2273 39.9909L40 36.3216V28.1263L33.2273 31.7956V39.9909ZM32.5929 39.9909V31.7926L25.8202 28.1293V36.3247L32.5929 39.9909ZM18.7666 14.6572L19.0143 14.7904L25.3913 18.2477L25.5091 18.3113L32.2425 14.6572L25.5 11L18.7666 14.6572Z" fill="white"/>
</svg>
