<svg width="52" height="52" viewBox="0 0 52 52" fill="none" xmlns="http://www.w3.org/2000/svg">
<rect width="52" height="52" rx="10" fill="#3855EC"/>
<path d="M26.2834 20.8497C31.3934 20.8497 36.5668 19.4908 36.5668 16.8945C36.5668 11.7018 16 11.7018 16 16.8945C16 19.4908 21.1734 20.8497 26.2834 20.8497Z" fill="white"/>
<path d="M36.5351 31.6624C36.5459 31.6575 36.556 31.6517 36.5668 31.6468V26.9529C30.5624 29.3832 22.432 29.5662 16 26.961V31.6307C16.0108 31.6355 16.0209 31.6418 16.0317 31.6465C22.1923 34.3895 30.5942 34.2637 36.5351 31.6624Z" fill="white"/>
<path d="M26.2834 40C31.3934 40 36.5668 38.6412 36.5668 36.0449V33.3193C29.9835 35.979 21.9786 35.7619 16 33.3421V36.0449C16 38.6412 21.1734 40 26.2834 40Z" fill="white"/>
<path d="M36.5351 25.234C36.5458 25.2297 36.556 25.224 36.5668 25.2198V19.9294C34.3296 21.7285 30.0874 22.4316 26.2834 22.4316C22.4794 22.4316 18.2372 21.7285 16 19.9294V25.2498C16.0108 25.2545 16.0209 25.2609 16.0317 25.2656C22.0342 27.9536 30.5717 27.9487 36.5351 25.234Z" fill="white"/>
</svg>
