<svg width="52" height="52" viewBox="0 0 52 52" fill="none" xmlns="http://www.w3.org/2000/svg">
<rect width="52" height="52" rx="10" fill="#1ECB4F"/>
<path d="M29.21 18.1193C30.5286 18.9461 31.4533 20.3451 31.6216 21.9692C32.1594 22.2204 32.7562 22.3649 33.3891 22.3649C35.6993 22.3649 37.5717 20.4925 37.5717 18.1826C37.5717 15.8724 35.6993 14 33.3891 14C31.1009 14.0007 29.2449 15.8397 29.21 18.1193ZM26.4698 26.6832C28.78 26.6832 30.6525 24.8104 30.6525 22.5005C30.6525 20.1907 28.7797 18.3182 26.4698 18.3182C24.16 18.3182 22.2865 20.191 22.2865 22.5009C22.2865 24.8107 24.16 26.6832 26.4698 26.6832ZM28.244 26.9683H24.6949C21.7419 26.9683 19.3396 29.371 19.3396 32.324V36.6643L19.3506 36.7323L19.6495 36.8259C22.4676 37.7064 24.9159 38 26.9311 38C30.8671 38 33.1485 36.8778 33.289 36.8063L33.5684 36.665H33.5983V32.324C33.5994 29.371 31.197 26.9683 28.244 26.9683ZM35.164 22.6504H31.6423C31.6042 24.0594 31.0027 25.3282 30.0513 26.2408C32.6762 27.0213 34.5967 29.4553 34.5967 32.3304V33.6679C38.0739 33.5405 40.0776 32.555 40.2097 32.4888L40.4891 32.3471H40.519V28.0054C40.519 25.0527 38.1166 22.6504 35.164 22.6504ZM19.1306 22.3656C19.9489 22.3656 20.7102 22.1268 21.3551 21.72C21.5601 20.3829 22.2769 19.2144 23.3008 18.4186C23.3051 18.3403 23.3126 18.2627 23.3126 18.1837C23.3126 15.8735 21.4398 14.0011 19.1306 14.0011C16.8201 14.0011 14.948 15.8735 14.948 18.1837C14.948 20.4928 16.8201 22.3656 19.1306 22.3656ZM22.8869 26.2408C21.9402 25.3328 21.3408 24.0708 21.2971 22.6703C21.1664 22.6607 21.0372 22.6504 20.9041 22.6504H17.3554C14.4024 22.6504 12 25.0527 12 28.0054V32.3464L12.011 32.4133L12.31 32.5076C14.5707 33.2134 16.5884 33.5387 18.3409 33.6412V32.3304C18.3416 29.4553 20.2614 27.022 22.8869 26.2408Z" fill="white"/>
</svg>
