<svg width="52" height="52" viewBox="0 0 52 52" fill="none" xmlns="http://www.w3.org/2000/svg">
<rect width="52" height="52" rx="10" fill="#039CD8"/>
<path d="M21.5146 18.8303C21.5146 16.6455 23.2854 14.8793 25.4656 14.8793C26.5511 14.8793 27.5446 15.3209 28.2575 16.0338C28.975 16.7513 29.4166 17.7356 29.4166 18.8303V19.9802H31.7348C31.9003 19.9802 32.0705 19.9894 32.2315 20.0124V18.7659C32.2315 16.8939 31.4726 15.2059 30.2491 13.9824C29.0256 12.7589 27.3376 12 25.4656 12C21.7216 12 18.6997 15.0311 18.6997 18.7659V20.04H21.5192V18.8303H21.5146Z" fill="white"/>
<path d="M24.6239 28.5766C24.7343 28.6272 24.817 28.7192 24.863 28.8296C24.9044 28.9446 24.8998 29.0688 24.8492 29.1792L23.6488 31.7641L27.1812 31.7595L26.0037 29.2436C25.9485 29.1286 25.9485 28.9998 25.9945 28.8802C26.0405 28.7652 26.1371 28.6732 26.2521 28.6272C27.0616 28.3191 27.609 27.5325 27.609 26.6678C27.609 25.5041 26.6615 24.5566 25.5024 24.5566C24.3433 24.5566 23.4004 25.5041 23.4004 26.6678C23.4004 27.4911 23.8787 28.2363 24.6239 28.5766Z" fill="white"/>
<path d="M19.2701 35.43H31.7348C33.5378 35.43 35.0004 33.9673 35.0004 32.1643V24.1565C35.0004 22.3535 33.5378 20.8909 31.7348 20.8909H19.2701C17.467 20.8909 16.0044 22.3535 16.0044 24.1565V32.1643C16.0044 33.9673 17.467 35.43 19.2701 35.43ZM25.5024 23.6506C27.1628 23.6506 28.5151 25.0028 28.5151 26.6679C28.5151 27.7442 27.9264 28.7331 27.0111 29.2666L27.9954 31.3778C28.1241 31.6584 28.1057 31.9849 27.9402 32.2425C27.7746 32.5047 27.4894 32.6611 27.1766 32.6611H23.6396C23.3314 32.6611 23.0463 32.5047 22.8807 32.2425C22.7151 31.9803 22.6921 31.6584 22.8209 31.3778L23.842 29.1746C23.0049 28.6273 22.4851 27.6844 22.4851 26.6633C22.4943 25.0074 23.842 23.6506 25.5024 23.6506Z" fill="white"/>
<path d="M33.7446 37.946C33.2111 37.946 32.7466 38.2726 32.558 38.7371C32.5442 38.7371 32.535 38.7325 32.5212 38.7325H30.6124C30.1938 38.7325 29.8626 38.3922 29.8626 37.9828V36.3362H28.9565V37.9828C28.9565 38.8981 29.7017 39.6386 30.6124 39.6386H32.5212H32.5304C32.7006 40.1446 33.1789 40.5171 33.7446 40.5171C34.453 40.5171 35.0325 39.9422 35.0325 39.2293C35.0279 38.521 34.4484 37.946 33.7446 37.946Z" fill="white"/>
<path d="M21.1466 37.9829C21.1466 38.3968 20.8109 38.7326 20.3923 38.7326H18.4835C18.4697 38.7326 18.4605 38.7372 18.4467 38.7372C18.2581 38.2726 17.7936 37.9461 17.2554 37.9461C16.5471 37.9461 15.9722 38.521 15.9722 39.2339C15.9722 39.9468 16.5471 40.5218 17.2554 40.5218C17.8258 40.5218 18.3041 40.1492 18.4743 39.6433H18.4835H20.3923C21.3076 39.6433 22.0481 38.8982 22.0481 37.9875V36.3408H21.142V37.9829H21.1466Z" fill="white"/>
<path d="M25.953 37.9874V36.3362H25.0469V37.9874C24.5639 38.1714 24.2144 38.6359 24.2144 39.1879C24.2144 39.9008 24.7939 40.4758 25.5068 40.4758C26.2151 40.4758 26.7901 39.9008 26.7901 39.1879C26.7901 38.6313 26.4451 38.1668 25.953 37.9874Z" fill="white"/>
<path d="M38.2156 23.0479C38.2156 23.4664 37.8799 23.8022 37.4659 23.8022H35.8975C35.9113 23.9172 35.9159 24.0322 35.9159 24.1518V24.7083H37.4613C38.3766 24.7083 39.1171 23.9586 39.1171 23.0479V21.1345C39.6277 20.9643 39.9956 20.4859 39.9956 19.9156C39.9956 19.2073 39.4207 18.6323 38.7078 18.6323C37.9948 18.6323 37.4199 19.2073 37.4199 19.9156C37.4199 20.4537 37.7511 20.9137 38.2156 21.1069C38.211 21.1161 38.2064 21.1299 38.2064 21.1391V23.0479H38.2156Z" fill="white"/>
<path d="M39.1217 35.1817V33.2683C39.1217 32.353 38.3766 31.6079 37.4659 31.6079H35.9159V32.1645C35.9159 32.284 35.9113 32.399 35.8975 32.514H37.4613C37.8799 32.514 38.211 32.8544 38.211 33.2683V35.1771C38.211 35.1863 38.2156 35.2001 38.2202 35.2093C37.7557 35.4025 37.4245 35.8625 37.4245 36.4006C37.4245 37.1089 37.9994 37.6839 38.7124 37.6839C39.4253 37.6839 40.0002 37.1089 40.0002 36.4006C40.0002 35.8303 39.6323 35.3519 39.1217 35.1817Z" fill="white"/>
<path d="M38.6662 26.8701C38.1143 26.8701 37.6452 27.2197 37.4658 27.7026H35.9111V28.6087H37.4658C37.6498 29.0917 38.1143 29.4412 38.6662 29.4412C39.3792 29.4412 39.9541 28.8663 39.9541 28.1488C39.9541 27.4497 39.3792 26.8701 38.6662 26.8701Z" fill="white"/>
<path d="M12.7938 23.0479V21.1391C12.7938 21.1299 12.7846 21.1161 12.7846 21.1069C13.2492 20.9137 13.5757 20.4537 13.5757 19.9156C13.5757 19.2073 13.0054 18.6323 12.2925 18.6323C11.5795 18.6323 11 19.2073 11 19.9156C11 20.4859 11.3726 20.9643 11.8831 21.1345V23.0479C11.8831 23.9632 12.6282 24.7083 13.5389 24.7083H15.089V24.1518C15.089 24.0322 15.0936 23.9172 15.1074 23.8022H13.5481C13.1296 23.8068 12.7938 23.4664 12.7938 23.0479Z" fill="white"/>
<path d="M12.7939 33.2683C12.7939 32.8498 13.1297 32.514 13.5436 32.514H15.1121C15.0983 32.399 15.0937 32.284 15.0937 32.1645V31.6079H13.5482C12.6329 31.6079 11.8924 32.3576 11.8924 33.2683V35.1817C11.3818 35.3519 11.0093 35.8303 11.0093 36.4006C11.0093 37.1089 11.5888 37.6839 12.3017 37.6839C13.0147 37.6839 13.585 37.1089 13.585 36.4006C13.585 35.8625 13.2584 35.4025 12.7939 35.2093C12.7939 35.2001 12.8031 35.1863 12.8031 35.1771V33.2683H12.7939Z" fill="white"/>
<path d="M12.343 29.4459C12.895 29.4459 13.3595 29.0963 13.5435 28.6134H15.0982V27.7073H13.5435C13.3595 27.2243 12.895 26.8748 12.343 26.8748C11.6301 26.8748 11.0552 27.4497 11.0552 28.158C11.0552 28.8709 11.6301 29.4459 12.343 29.4459Z" fill="white"/>
</svg>
