<svg width="52" height="52" viewBox="0 0 52 52" fill="none" xmlns="http://www.w3.org/2000/svg">
<rect width="52" height="52" rx="10" fill="#6154F0"/>
<path d="M16.5454 19.9091C16.5454 16.6456 19.191 14 22.4545 14C25.718 14 28.3636 16.6456 28.3636 19.9091C28.3636 23.1726 25.718 25.8182 22.4545 25.8182C19.191 25.8182 16.5454 23.1726 16.5454 19.9091Z" fill="white"/>
<path d="M35.4545 23.4546V19.9092H33.0909V23.4546H29.5454V25.8183H33.0909V29.3637H35.4545V25.8183H39V23.4546H35.4545Z" fill="white"/>
<path d="M18.9091 28.1819C17.3419 28.1819 15.8389 28.8045 14.7307 29.9127C13.6226 31.0207 13 32.5238 13 34.091V37.6364H31.9091V34.091C31.9091 32.5238 31.2865 31.0207 30.1783 29.9127C29.0702 28.8045 27.5672 28.1819 26 28.1819H18.9091Z" fill="white"/>
</svg>
