<svg width="24" height="27" viewBox="0 0 24 27" fill="none" xmlns="http://www.w3.org/2000/svg">
<path d="M23.9163 18.3798C23.7487 17.7541 23.3474 17.2311 22.7864 16.9073C22.6515 16.8294 22.5099 16.765 22.3637 16.7146V10.2454C22.5099 10.195 22.6515 10.1306 22.7864 10.0527C23.3474 9.72885 23.7487 9.20592 23.9163 8.5802C24.0839 7.95454 23.9979 7.30102 23.674 6.74002C23.2421 5.99193 22.4368 5.52719 21.5723 5.52719C21.1485 5.52719 20.7298 5.63966 20.3613 5.85239C20.2253 5.9309 20.0987 6.02121 19.9825 6.12173L14.3808 2.88763C14.4099 2.73787 14.4251 2.58322 14.4251 2.42509C14.4251 1.08788 13.3372 0 12 0C10.6628 0 9.57495 1.08788 9.57495 2.42509C9.57495 2.58322 9.59016 2.73787 9.61923 2.88763L4.01753 6.12173C3.90132 6.02116 3.77474 5.9309 3.63872 5.85239C3.27023 5.63966 2.85151 5.52719 2.42768 5.52719C1.56322 5.52719 0.757892 5.99193 0.325951 6.74002C0.00206171 7.30102 -0.083979 7.95449 0.0836791 8.5802C0.251337 9.20587 0.652632 9.72885 1.21358 10.0527C1.34849 10.1306 1.49013 10.195 1.63631 10.2454V16.7146C1.49013 16.765 1.34854 16.8294 1.21363 16.9072C0.652632 17.2311 0.251337 17.7541 0.0837317 18.3798C-0.0839263 19.0054 0.00211434 19.659 0.326004 20.22C0.757892 20.968 1.56322 21.4328 2.42768 21.4328C2.85151 21.4328 3.27023 21.3203 3.63872 21.1076C3.77474 21.0291 3.90132 20.9388 4.01753 20.8382L9.61923 24.0724C9.59016 24.2221 9.57495 24.3768 9.57495 24.5349C9.57495 25.8721 10.6628 26.96 12 26.96C13.3372 26.96 14.4251 25.8721 14.4251 24.5349C14.4251 24.3768 14.4099 24.2221 14.3808 24.0724L19.9825 20.8382C20.0988 20.9388 20.2253 21.0291 20.3613 21.1076C20.7298 21.3203 21.1486 21.4328 21.5724 21.4328C22.4369 21.4328 23.2422 20.968 23.6741 20.22C23.998 19.659 24.0839 19.0055 23.9163 18.3798ZM12 22.1098C11.3924 22.1098 10.8363 22.3345 10.4103 22.7051L4.80685 19.47C4.91933 18.8955 4.82181 18.3067 4.52635 17.795C4.23085 17.2831 3.76052 16.9039 3.21605 16.7155V10.2446C3.76052 10.0561 4.23085 9.67693 4.52635 9.16511C4.82181 8.65334 4.91933 8.06454 4.80685 7.49011L10.4103 4.25495C10.8363 4.62555 11.3924 4.85018 12 4.85018C12.6077 4.85018 13.1638 4.62555 13.5898 4.25495L19.1932 7.49006C19.0807 8.06449 19.1783 8.65329 19.4737 9.16506C19.7692 9.67693 20.2396 10.0561 20.784 10.2445V16.7154C20.2396 16.9039 19.7692 17.283 19.4737 17.7949C19.1783 18.3066 19.0807 18.8954 19.1932 19.4699L13.5898 22.705C13.1638 22.3345 12.6076 22.1098 12 22.1098Z" fill="#828282"/>
<path d="M6.00366 10.8347V17.0397L11.2102 20.0278V13.8227L6.00366 10.8347Z" fill="#828282"/>
<path d="M17.2065 9.46674L12 6.47876L6.79346 9.46674L12 12.4547L17.2065 9.46674Z" fill="#828282"/>
<path d="M17.9963 10.8347L12.7898 13.8227V20.0278L17.9963 17.0397V10.8347Z" fill="#828282"/>
</svg>
