<svg width="52" height="52" viewBox="0 0 52 52" fill="none" xmlns="http://www.w3.org/2000/svg">
<rect width="52" height="52" rx="10" fill="#F05454"/>
<path d="M16.5459 19.91C16.5459 16.646 19.1919 14 22.4559 14C25.7199 14 28.3659 16.646 28.3659 19.91C28.3659 23.174 25.7199 25.82 22.4559 25.82C19.1919 25.82 16.5459 23.174 16.5459 19.91Z" fill="white"/>
<path d="M32.7477 21.4382C32.2862 20.9766 31.5377 20.9766 31.0762 21.4382C30.6146 21.8998 30.6146 22.6482 31.0762 23.1098L32.6044 24.638L31.0762 26.1662C30.6146 26.6278 30.6146 27.3763 31.0762 27.8378C31.5377 28.2994 32.2862 28.2994 32.7477 27.8378L34.276 26.3096L35.8042 27.8378C36.2657 28.2994 37.0142 28.2994 37.4757 27.8378C37.9373 27.3763 37.9373 26.6278 37.4757 26.1662L35.9475 24.638L37.4757 23.1098C37.9373 22.6482 37.9373 21.8998 37.4757 21.4382C37.0142 20.9766 36.2657 20.9766 35.8042 21.4382L34.276 22.9664L32.7477 21.4382Z" fill="white"/>
<path d="M18.91 28.1841C17.3426 28.1841 15.8393 28.8068 14.731 29.9151C13.6227 31.0234 13 32.5266 13 34.0941V36.4581C13 37.1109 13.5292 37.6401 14.182 37.6401H30.73C31.3828 37.6401 31.912 37.1109 31.912 36.4581V34.0941C31.912 32.5266 31.2893 31.0234 30.181 29.9151C29.0727 28.8068 27.5694 28.1841 26.002 28.1841H18.91Z" fill="white"/>
</svg>
