<svg width="20" height="14" viewBox="0 0 20 14" fill="none" xmlns="http://www.w3.org/2000/svg">
<path d="M19.6932 6.14922C17.3265 3.28918 13.7438 0.536133 10 0.536133C6.25555 0.536133 2.67205 3.2911 0.306845 6.14922C-0.102282 6.6434 -0.102282 7.36082 0.306845 7.855C0.901484 8.57357 2.14811 9.96068 3.8131 11.1727C8.00632 14.2252 11.9845 14.232 16.187 11.1727C17.852 9.96068 19.0986 8.57357 19.6932 7.855C20.1012 7.36178 20.1033 6.64502 19.6932 6.14922ZM10 2.69146C12.3771 2.69146 14.3107 4.62509 14.3107 7.00211C14.3107 9.37913 12.3771 11.3128 10 11.3128C7.62302 11.3128 5.68939 9.37913 5.68939 7.00211C5.68939 4.62509 7.62302 2.69146 10 2.69146Z" fill="#039CD8"/>
<path d="M9.99994 10.0809C11.7004 10.0809 13.079 8.70239 13.079 7.00189C13.079 5.30138 11.7004 3.92285 9.99994 3.92285C8.29943 3.92285 6.9209 5.30138 6.9209 7.00189C6.9209 8.70239 8.29943 10.0809 9.99994 10.0809Z" fill="#039CD8"/>
</svg>
