<svg width="24" height="24" viewBox="0 0 24 24" fill="none" xmlns="http://www.w3.org/2000/svg">
<path d="M5.12516 15.0155H5.70968V15.9755H5.32645L4.32 16.9781C4.23484 17.071 4.1071 17.1174 3.98323 17.1174H3.30968C3.10839 17.8181 2.45419 18.3329 1.69161 18.3329C0.75871 18.3329 0 17.5742 0 16.6374C0 15.7045 0.75871 14.9497 1.69548 14.9497C2.45806 14.9497 3.11226 15.4645 3.31355 16.1574H3.78581L4.79226 15.1549C4.87742 15.062 5.00129 15.0155 5.12516 15.0155Z" fill="#828282"/>
<path d="M18.8748 9.10453H18.2903V8.14453H18.6735L19.68 7.14195C19.7651 7.04904 19.8929 7.00259 20.0167 7.00259H20.6903C20.8916 6.30195 21.5458 5.78711 22.3083 5.78711C23.2451 5.78711 24.0038 6.54582 24.0038 7.48259C24.0038 8.4155 23.2451 9.17034 22.3083 9.17034C21.5458 9.17034 20.8916 8.6555 20.6903 7.96259H20.218L19.2116 8.96517C19.1225 9.05808 18.9987 9.10453 18.8748 9.10453Z" fill="#828282"/>
<path d="M19.4786 12.5382H18.2864V11.5782H19.4786C19.6761 11.0207 20.2064 10.6182 20.8335 10.6182C21.627 10.6182 22.2735 11.2646 22.2735 12.0582C22.2735 12.8556 21.627 13.4982 20.8335 13.4982C20.2064 13.4982 19.6761 13.0995 19.4786 12.5382Z" fill="#828282"/>
<path d="M4.52116 11.5782H5.71342V12.5382H4.52116C4.32374 13.0995 3.79342 13.4982 3.16632 13.4982C2.37277 13.4982 1.72632 12.8556 1.72632 12.0582C1.72632 11.2646 2.37277 10.6182 3.16632 10.6182C3.79342 10.6182 4.32374 11.0207 4.52116 11.5782Z" fill="#828282"/>
<path d="M9.11614 1.69548C9.11614 2.45806 8.6013 3.11226 7.90065 3.31355V3.78581L8.9071 4.79226C8.99227 4.87742 9.04646 5.00516 9.04646 5.12903V5.71355H8.08646V5.33032L7.08388 4.32387C6.99097 4.23871 6.94065 4.11097 6.94065 3.9871V3.31355C6.24388 3.11226 5.73291 2.45806 5.73291 1.69548C5.73291 0.75871 6.49162 0 7.42065 0C8.35743 0 9.11614 0.75871 9.11614 1.69548Z" fill="#828282"/>
<path d="M23.9999 16.6375C23.9999 17.5742 23.2412 18.3329 22.3044 18.3329C21.5419 18.3329 20.8877 17.8181 20.6864 17.1175H20.0128C19.889 17.1175 19.7651 17.071 19.6761 16.9781L18.6696 15.9755H18.2864V15.0155H18.8709C18.9948 15.0155 19.1186 15.062 19.2077 15.1549L20.2141 16.1575H20.6864C20.8877 15.4607 21.5419 14.9497 22.3044 14.9497C23.2412 14.9459 23.9999 15.7046 23.9999 16.6375Z" fill="#828282"/>
<path d="M18.267 22.3044C18.267 23.2412 17.5083 23.9999 16.5793 23.9999C15.6425 23.9999 14.8838 23.2412 14.8838 22.3044C14.8838 21.5419 15.3986 20.8877 16.0993 20.6864V20.2141L15.0928 19.2077C15.0077 19.1225 14.9535 18.9948 14.9535 18.8709V18.2864H15.9135V18.6696L16.916 19.6761C17.009 19.7612 17.0593 19.889 17.0593 20.0128V20.6864C17.756 20.8877 18.267 21.5419 18.267 22.3044Z" fill="#828282"/>
<path d="M13.4401 20.8335C13.4401 21.627 12.7936 22.2735 12.0001 22.2735C11.2065 22.2735 10.5601 21.627 10.5601 20.8335C10.5601 20.2102 10.9626 19.6761 11.5201 19.4786V18.2864H12.4801V19.4786C13.0375 19.6761 13.4401 20.2064 13.4401 20.8335Z" fill="#828282"/>
<path d="M18.267 1.69548C18.267 2.45806 17.7522 3.11226 17.0593 3.31355V3.9871C17.0593 4.11097 17.0051 4.23484 16.916 4.32387L15.9135 5.33032V5.71355H14.9535V5.12903C14.9535 5.00516 15.0077 4.88129 15.0928 4.79226L16.0993 3.78581V3.31355C15.3986 3.11226 14.8838 2.45806 14.8838 1.69548C14.8838 0.75871 15.6425 0 16.5793 0C17.5122 0 18.267 0.75871 18.267 1.69548Z" fill="#828282"/>
<path d="M5.32645 8.14453H5.70968V9.10453H5.12516C5.00129 9.10453 4.87742 9.05808 4.78839 8.96517L3.78194 7.96259H3.30968C3.10839 8.65937 2.45419 9.17034 1.69161 9.17034C0.75871 9.17421 0 8.4155 0 7.48259C0 6.54582 0.75871 5.78711 1.69548 5.78711C2.45806 5.78711 3.11226 6.30195 3.31355 7.00259H3.9871C4.11097 7.00259 4.23484 7.04904 4.32387 7.14195L5.32645 8.14453Z" fill="#828282"/>
<path d="M13.4401 3.16632C13.4401 3.78954 13.0375 4.32374 12.4801 4.52116V5.71342H11.5201V4.52116C10.9626 4.32374 10.5601 3.79342 10.5601 3.16632C10.5601 2.37277 11.2065 1.72632 12.0001 1.72632C12.7936 1.72632 13.4401 2.37664 13.4401 3.16632Z" fill="#828282"/>
<path d="M9.11614 22.3044C9.11614 23.2412 8.35743 23.9999 7.42065 23.9999C6.48775 23.9999 5.73291 23.2412 5.73291 22.3044C5.73291 21.5419 6.24775 20.8877 6.94065 20.6864V20.0128C6.94065 19.889 6.99485 19.7651 7.08388 19.6761L8.08646 18.6696V18.2864H9.04646V18.8709C9.04646 18.9948 8.99227 19.1186 8.9071 19.2077L7.90065 20.2141V20.6864C8.6013 20.8877 9.11614 21.5419 9.11614 22.3044Z" fill="#828282"/>
<path d="M10.7536 10.6375C10.1614 10.6375 9.67749 11.1213 9.67749 11.7136V11.8955H11.8297V11.7136C11.8297 11.1175 11.3459 10.6375 10.7536 10.6375Z" fill="#828282"/>
<path d="M16.4942 6.67358H7.50581C7.04516 6.67358 6.66968 7.04907 6.66968 7.50971V16.4942C6.66968 16.9549 7.04516 17.3304 7.50581 17.3304H16.4903C16.951 17.3304 17.3265 16.9549 17.3265 16.4942V7.50584C17.3265 7.0452 16.9548 6.67358 16.4942 6.67358ZM12.7897 13.8426C12.7897 14.1058 12.5729 14.3226 12.3097 14.3226C12.0465 14.3226 11.8297 14.1058 11.8297 13.8426V12.8555H9.67742V13.8426C9.67742 14.1058 9.46065 14.3226 9.19742 14.3226C8.93419 14.3226 8.71742 14.1058 8.71742 13.8426V11.7097C8.71742 10.5871 9.63097 9.67358 10.7535 9.67358C11.8761 9.67358 12.7897 10.5871 12.7897 11.7097V13.8426ZM15.2826 13.8426C15.2826 14.1058 15.0658 14.3226 14.8026 14.3226C14.5355 14.3226 14.3226 14.1097 14.3226 13.8426V10.1575C14.3226 9.89423 14.5394 9.67745 14.8026 9.67745C15.0658 9.67745 15.2826 9.89423 15.2826 10.1575V13.8426Z" fill="#828282"/>
</svg>
