<svg width="52" height="52" viewBox="0 0 52 52" fill="none" xmlns="http://www.w3.org/2000/svg">
<rect width="52" height="52" rx="10" fill="#3855EC"/>
<path d="M27.5073 29.0299C27.2802 29.2569 26.9995 29.4304 26.6952 29.5318L23.7568 30.5113C23.5447 30.582 23.3236 30.6179 23.0998 30.6179C22.5448 30.6179 22.023 30.4018 21.6306 30.0093C21.0705 29.4491 20.8782 28.6344 21.1287 27.8831L22.1082 24.9448C22.2095 24.6405 22.3831 24.3596 22.6101 24.1326L28.9566 17.7861H16.5395C15.1392 17.7861 14 18.9253 14 20.3256V35.1006C14 36.5008 15.1392 37.64 16.5395 37.64H31.3144C32.7147 37.64 33.8539 36.5008 33.8539 35.1006V22.6834L27.5073 29.0299Z" fill="white"/>
<path d="M23.5891 25.112C23.513 25.1881 23.4558 25.2807 23.4218 25.3827L22.4423 28.3211C22.3593 28.5699 22.4241 28.8443 22.6096 29.0298C22.7951 29.2153 23.0695 29.2801 23.3183 29.1971L26.2567 28.2176C26.3587 28.1837 26.4514 28.1264 26.5274 28.0504L35.1793 19.3985L32.2409 16.4602L23.5891 25.112Z" fill="white"/>
<path d="M35.9958 14.3381C35.545 13.8873 34.8142 13.8873 34.3634 14.3381L33.2207 15.4808L36.1591 18.4192L37.3018 17.2765C37.7526 16.8257 37.7526 16.0948 37.3018 15.6441L35.9958 14.3381Z" fill="white"/>
</svg>
