<svg width="52" height="52" viewBox="0 0 52 52" fill="none" xmlns="http://www.w3.org/2000/svg">
<rect width="52" height="52" rx="10" fill="#039CD8"/>
<path d="M37.4332 20.8745L31.0306 14.2258C30.8218 14.0092 30.5017 13.9412 30.223 14.0534C29.9433 14.1666 29.76 14.4375 29.76 14.7389V17.9403H29.5138C24.2185 17.9403 19.9102 22.2486 19.9102 27.5439V29.0214C19.9102 29.3641 20.1515 29.6498 20.4853 29.7277C20.5396 29.7414 20.5937 29.7474 20.6478 29.7474C20.9267 29.7474 21.1936 29.5838 21.3225 29.3268C22.7075 26.5559 25.492 24.8352 28.5899 24.8352H29.76V28.0363C29.76 28.3379 29.9433 28.6088 30.223 28.721C30.4999 28.8342 30.8218 28.7653 31.0306 28.5485L37.4332 21.8998C37.7089 21.6132 37.7089 21.1622 37.4332 20.8745Z" fill="white"/>
<path d="M34.6849 37.6399H16.955C15.3258 37.6399 14 36.3143 14 34.6849V20.8952C14 19.266 15.3258 17.9402 16.955 17.9402H19.91C20.4546 17.9402 20.8949 18.3804 20.8949 18.9251C20.8949 19.4698 20.4546 19.9101 19.91 19.9101H16.955C16.4112 19.9101 15.9699 20.3514 15.9699 20.8952V34.6849C15.9699 35.2287 16.4112 35.6701 16.955 35.6701H34.6849C35.2284 35.6701 35.6698 35.2287 35.6698 34.6849V26.8051C35.6698 26.2604 36.11 25.82 36.6547 25.82C37.1996 25.82 37.6398 26.2604 37.6398 26.8051V34.6849C37.6398 36.3143 36.314 37.6399 34.6849 37.6399Z" fill="white"/>
</svg>
