<svg width="52" height="52" viewBox="0 0 52 52" fill="none" xmlns="http://www.w3.org/2000/svg">
<rect width="52" height="52" rx="10" fill="#1ECB4F"/>
<path d="M27.5882 28.3694H19.7123C17.6651 28.3694 16 30.0262 16 32.0631V35.5106C16 35.9184 16.3326 36.2494 16.7425 36.2494H25.8063C24.8778 33.453 25.5925 30.4605 27.5882 28.3694Z" fill="white"/>
<path d="M31.2969 28.3694C28.7411 28.3694 26.6616 30.4488 26.6616 33.0047C26.6616 35.5605 28.7411 37.64 31.2969 37.64C33.8527 37.64 35.9322 35.5605 35.9322 33.0047C35.9322 30.4488 33.8527 28.3694 31.2969 28.3694ZM31.2969 29.4391C32.0871 29.4391 32.8109 29.7058 33.4028 30.1429L28.4344 35.1105C27.998 34.5186 27.7313 33.7948 27.7313 33.0047C27.7313 31.0386 29.3308 29.4391 31.2969 29.4391ZM31.2969 36.5703C30.5068 36.5703 29.783 36.3036 29.1911 35.8664L34.1594 30.8988C34.5958 31.4907 34.8625 32.2145 34.8625 33.0047C34.8625 34.9708 33.263 36.5703 31.2969 36.5703Z" fill="white"/>
<path d="M19.7085 20.2155C19.7085 16.7828 22.4913 14 25.924 14C29.3567 14 32.1395 16.7828 32.1395 20.2155C32.1395 23.6482 29.3567 26.431 25.924 26.431C22.4913 26.431 19.7085 23.6482 19.7085 20.2155Z" fill="white"/>
</svg>
